<?xml version="1.0" encoding="UTF-8"?>
<!DOCTYPE svg PUBLIC "-//W3C//DTD SVG 1.1//EN" "http://www.w3.org/Graphics/SVG/1.1/DTD/svg11.dtd">
<svg xmlns="http://www.w3.org/2000/svg" version="1.1" width="1024px" height="613px" style="shape-rendering:geometricPrecision; text-rendering:geometricPrecision; image-rendering:optimizeQuality; fill-rule:evenodd; clip-rule:evenodd" xmlns:xlink="http://www.w3.org/1999/xlink">
<g><path style="opacity:0.992" fill="#242e3d" d="M 858.5,2.5 C 889.056,1.64754 918.389,7.14754 946.5,19C 952.82,21.986 956.987,26.8193 959,33.5C 959.667,42.5 959.667,51.5 959,60.5C 958.112,64.5261 955.612,66.5261 951.5,66.5C 940.496,62.776 929.496,58.9426 918.5,55C 893.306,48.5597 867.973,47.8931 842.5,53C 816.721,61.727 808.554,78.8936 818,104.5C 824.889,113.539 833.723,120.039 844.5,124C 869.363,132.732 894.363,141.066 919.5,149C 964.876,166.573 983.043,199.406 974,247.5C 963.392,281.439 940.892,303.273 906.5,313C 861.705,324.372 817.705,321.706 774.5,305C 767.24,302.399 761.073,298.232 756,292.5C 753.985,286.183 753.152,279.683 753.5,273C 753.667,268.5 753.833,264 754,259.5C 754.346,257.152 755.513,255.319 757.5,254C 761.905,253.304 766.239,253.637 770.5,255C 806.934,272.062 844.934,277.062 884.5,270C 902.55,265.946 914.05,255.112 919,237.5C 921.146,223.935 916.98,212.769 906.5,204C 899.675,199.387 892.342,195.72 884.5,193C 862.5,186 840.5,179 818.5,172C 772.312,154.126 752.478,120.626 759,71.5C 767.556,43.5802 785.39,24.0802 812.5,13C 827.406,7.02355 842.74,3.52355 858.5,2.5 Z"/></g>
<g><path style="opacity:0.991" fill="#242e3d" d="M 156.5,3.5 C 183.145,1.66362 209.145,4.83029 234.5,13C 263.403,25.5813 280.903,47.4147 287,78.5C 288.653,86.4184 289.653,94.4184 290,102.5C 290.095,148.18 290.761,193.847 292,239.5C 294.294,253.051 298.961,265.718 306,277.5C 308.887,284.25 307.72,290.084 302.5,295C 294.5,300.333 286.5,305.667 278.5,311C 272.985,313.238 267.651,312.905 262.5,310C 252.227,299.299 244.06,287.133 238,273.5C 203.967,311.4 161.8,325.567 111.5,316C 75.91,307.076 54.7434,284.576 48,248.5C 41.0336,193.171 63.867,156.671 116.5,139C 139.904,133.386 163.57,132.053 187.5,135C 203.046,136.743 218.379,139.576 233.5,143.5C 235.456,123.221 233.956,103.221 229,83.5C 224.99,70.8238 216.824,61.9905 204.5,57C 176.22,48.4678 147.887,48.4678 119.5,57C 105.621,61.0708 91.9541,65.7375 78.5,71C 73.2216,72.726 69.3883,71.226 67,66.5C 66.3333,56.5 66.3333,46.5 67,36.5C 67.6064,33.4522 69.1064,30.9522 71.5,29C 98.1893,14.7119 126.523,6.21189 156.5,3.5 Z M 160.5,174.5 C 185.45,173.95 210.117,176.283 234.5,181.5C 240.555,233.615 217.889,264.115 166.5,273C 121.882,277.049 102.382,256.882 108,212.5C 112.798,194.369 124.298,182.869 142.5,178C 148.626,176.741 154.626,175.574 160.5,174.5 Z"/></g>
<g><path style="opacity:0.992" fill="#242e3d" d="M 326.5,11.5 C 341.17,11.3334 355.837,11.5001 370.5,12C 375.681,12.831 379.181,15.6643 381,20.5C 400.836,96.18 420.503,171.847 440,247.5C 457.867,171.031 476.201,94.6977 495,18.5C 497.481,14.6856 500.981,12.5189 505.5,12C 518.833,11.3333 532.167,11.3333 545.5,12C 552.106,12.6068 556.273,16.1068 558,22.5C 576,98.5 594,174.5 612,250.5C 631.997,174.511 651.997,98.5112 672,22.5C 673.727,16.1068 677.894,12.6068 684.5,12C 698.927,11.0349 713.26,11.3682 727.5,13C 729.853,15.133 730.853,17.7997 730.5,21C 730.259,24.2072 729.759,27.3738 729,30.5C 701.465,118.106 674.131,205.772 647,293.5C 645.678,298.977 643.178,303.811 639.5,308C 637.043,309.562 634.376,310.562 631.5,311C 617.833,311.667 604.167,311.667 590.5,311C 585.912,310.462 582.412,308.296 580,304.5C 561.162,229.646 542.828,154.646 525,79.5C 507.47,153.953 489.47,228.287 471,302.5C 468.314,308.181 463.814,311.015 457.5,311C 444.833,311.667 432.167,311.667 419.5,311C 412.987,310.16 408.487,306.66 406,300.5C 376.921,207.431 348.754,114.097 321.5,20.5C 321.5,16.4395 323.167,13.4395 326.5,11.5 Z"/></g>
<g><path style="opacity:0.975" fill="#ff9900" d="M 927.5,380.5 C 951.105,379.202 974.439,381.036 997.5,386C 1002.74,387.413 1007.74,389.413 1012.5,392C 1016.08,395.737 1017.92,400.237 1018,405.5C 1017.81,459.078 1001.14,506.744 968,548.5C 962.833,553.667 957.667,558.833 952.5,564C 949.548,566.309 946.214,567.809 942.5,568.5C 936.81,566.973 934.976,563.306 937,557.5C 949.732,527.304 960.065,496.304 968,464.5C 970.186,455.19 970.519,445.857 969,436.5C 966.698,430.746 962.531,426.912 956.5,425C 933.691,420.238 910.691,419.238 887.5,422C 870.108,423.284 852.774,425.118 835.5,427.5C 831.004,427.436 828.338,425.27 827.5,421C 828.125,417.416 829.792,414.416 832.5,412C 851.005,399.253 871.338,390.586 893.5,386C 904.899,383.664 916.232,381.83 927.5,380.5 Z"/></g>
<g><path style="opacity:0.984" fill="#ff9900" d="M 9.5,400.5 C 12.5184,400.335 15.5184,400.502 18.5,401C 211.988,510.298 419.321,552.632 640.5,528C 733.155,516.17 822.488,492.17 908.5,456C 924.362,454.294 930.862,461.127 928,476.5C 926.207,479.295 924.04,481.795 921.5,484C 861.329,526.247 795.662,557.58 724.5,578C 541.686,629.88 363.686,616.88 190.5,539C 123.413,507.523 62.5796,467.023 8,417.5C 2.96888,411.206 3.46888,405.539 9.5,400.5 Z"/></g>
</svg>
